<svg xmlns="http://www.w3.org/2000/svg" width="158" height="158" viewBox="0 0 158 158">
  <g id="Grupo_70459" data-name="Grupo 70459" transform="translate(-232 -1097)">
    <g id="Grupo_70455" data-name="Grupo 70455">
      <g id="Grupo_70454" data-name="Grupo 70454">
        <path id="Trazado_108368" data-name="Trazado 108368" d="M115.866,112.81a66.876,66.876,0,0,0-.021-91.6l4.571-4.571a6.381,6.381,0,0,0,2.778.65,6.484,6.484,0,1,0-6.484-6.484,6.381,6.381,0,0,0,.65,2.778l-4.571,4.571a66.861,66.861,0,0,0-82.25-7.348H8.645A8.654,8.654,0,0,0,0,19.452v95.1a8.654,8.654,0,0,0,8.645,8.645H30.512a66.927,66.927,0,0,0,72.569.233l8.148,8.148a8.274,8.274,0,1,0,11.7-11.7ZM123.193,8.645a2.161,2.161,0,1,1-2.161,2.161A2.165,2.165,0,0,1,123.193,8.645ZM67,4.323a62.444,62.444,0,0,1,42.735,16.886l-5.375,5.375a6.352,6.352,0,0,0-6.533.569L86.192,19.009a6.424,6.424,0,0,0,.26-1.718,6.484,6.484,0,1,0-6.484,6.484,6.428,6.428,0,0,0,3.754-1.217L95.356,30.7a6.424,6.424,0,0,0-.26,1.718,6.484,6.484,0,1,0,12.968,0,6.381,6.381,0,0,0-.65-2.778l5.375-5.375a62.558,62.558,0,0,1,.019,85.485L98.719,95.663a34.276,34.276,0,0,0,4.914-15.7h21.723V75.645h-4.323V41.065H108.065V75.645h-4.323V54.032H90.774V75.645H86.452V41.065H73.484v2.462a35.214,35.214,0,0,0-4.323-.3V19.452a8.654,8.654,0,0,0-8.645-8.645H39.279A62.429,62.429,0,0,1,67,4.323Zm36.742,28.1a2.161,2.161,0,1,1-2.161-2.161A2.165,2.165,0,0,1,103.742,32.42ZM82.129,17.291a2.161,2.161,0,1,1-2.161-2.161A2.165,2.165,0,0,1,82.129,17.291ZM34.691,79.968H12.968V58.355H40.594a34.368,34.368,0,0,0-6.013,19.452c0,.73.064,1.444.11,2.161ZM69.161,47.548a30.681,30.681,0,0,1,4.323.344v4.352a26.287,26.287,0,0,0-4.323-.374,25.935,25.935,0,1,0,25.826,28.1H99.31A30.242,30.242,0,1,1,69.161,47.548Zm21.5,32.419a21.848,21.848,0,1,1-17.181-23.29V75.645H69.161v4.323ZM77.806,75.645V45.387h4.323V75.645Zm17.29,0V58.355h4.323v17.29Zm17.29,0V45.387h4.323V75.645ZM4.323,19.452a4.327,4.327,0,0,1,4.323-4.323H60.516a4.327,4.327,0,0,1,4.323,4.323V28.1H4.323Zm0,12.968H64.839V43.527A34.476,34.476,0,0,0,44.115,54.032H8.645V84.29H35.212a34.351,34.351,0,0,0,1.122,4.323H8.646v4.323H38.114a34.773,34.773,0,0,0,6,8.645H4.323Zm4.323,86.451a4.327,4.327,0,0,1-4.323-4.323V105.9H49.079a34.323,34.323,0,0,0,15.76,6.183v2.462a4.327,4.327,0,0,1-4.323,4.323ZM67,129.677a62.463,62.463,0,0,1-27.709-6.484H60.516a8.654,8.654,0,0,0,8.645-8.645v-2.161a34.315,34.315,0,0,0,17.857-5.023l12.922,12.922A62.388,62.388,0,0,1,67,129.677Zm50.079,0a3.925,3.925,0,0,1-2.794-1.159L90.632,104.866a34.822,34.822,0,0,0,5.589-5.589l23.655,23.655a3.952,3.952,0,0,1-2.8,6.746Zm0,0" transform="translate(244 1109)" fill="#1d1871"/>
      </g>
      <path id="Trazado_108369" data-name="Trazado 108369" d="M88,408h21.613v4.323H88Zm0,0" transform="translate(179.774 811.226)" fill="#1d1871"/>
      <path id="Trazado_108370" data-name="Trazado 108370" d="M32,136h4.323v4.323H32Zm0,0" transform="translate(220.645 1009.742)" fill="#1d1871"/>
      <path id="Trazado_108371" data-name="Trazado 108371" d="M64,136h4.323v4.323H64Zm0,0" transform="translate(197.29 1009.742)" fill="#1d1871"/>
      <path id="Trazado_108372" data-name="Trazado 108372" d="M96,136h4.323v4.323H96Zm0,0" transform="translate(173.935 1009.742)" fill="#1d1871"/>
      <path id="Trazado_108373" data-name="Trazado 108373" d="M128,136h25.935v4.323H128Zm0,0" transform="translate(150.58 1009.742)" fill="#1d1871"/>
      <path id="Trazado_108374" data-name="Trazado 108374" d="M32,168H57.935v4.323H32Zm0,0" transform="translate(220.645 986.388)" fill="#1d1871"/>
      <path id="Trazado_108375" data-name="Trazado 108375" d="M144,168h4.323v4.323H144Zm0,0" transform="translate(138.903 986.388)" fill="#1d1871"/>
    </g>
    <rect id="Rectángulo_31415" data-name="Rectángulo 31415" width="158" height="158" transform="translate(232 1097)" fill="none"/>
  </g>
</svg>
