<svg xmlns="http://www.w3.org/2000/svg" width="158" height="158" viewBox="0 0 158 158">
  <g id="Grupo_70461" data-name="Grupo 70461" transform="translate(-232 -1491)">
    <g id="Grupo_70458" data-name="Grupo 70458">
      <g id="Grupo_70457" data-name="Grupo 70457">
        <g id="target" transform="translate(243.015 1502.886)">
          <path id="Trazado_108376" data-name="Trazado 108376" d="M72.348,83.153h-3.6l-7.2-5.4v-2.9A21.651,21.651,0,0,0,74.4,57.221h.11a6.483,6.483,0,0,0,6.483-6.483V48.577a6.483,6.483,0,0,0-6.483-6.483v-.6a15.127,15.127,0,0,0,6.483-12.365V16.161A2.161,2.161,0,0,0,78.831,14h-38.9A15.145,15.145,0,0,0,24.805,29.127V35.61a8.644,8.644,0,0,0,3.747,7.11,6.483,6.483,0,0,0-3.747,5.856v2.161a6.483,6.483,0,0,0,6.483,6.483h.11A21.651,21.651,0,0,0,44.255,74.853v2.9l-7.2,5.4h-3.6A19.473,19.473,0,0,0,14,102.6v12.966a2.161,2.161,0,0,0,2.161,2.161H89.636a2.161,2.161,0,0,0,2.161-2.161V102.6A19.473,19.473,0,0,0,72.348,83.153ZM76.67,48.577v2.161A2.161,2.161,0,0,1,74.509,52.9V46.416A2.161,2.161,0,0,1,76.67,48.577ZM29.127,29.127A10.818,10.818,0,0,1,39.932,18.322H76.67V29.127A10.788,10.788,0,0,1,73.9,36.3a2.146,2.146,0,0,0-.985-.618L60.728,32.358a2.161,2.161,0,0,0-2.416.962A9.584,9.584,0,0,1,55.9,36.062,11.832,11.832,0,0,1,50.965,38.2,15.559,15.559,0,0,0,52.9,31.476a2.161,2.161,0,0,0-2.161-2.349H48.577a2.137,2.137,0,0,0-.851.175L32.6,35.785a2.161,2.161,0,0,0-1.31,1.986v1.56a4.307,4.307,0,0,1-2.161-3.721Zm0,21.61V48.577a2.161,2.161,0,0,1,2.161-2.161V52.9A2.161,2.161,0,0,1,29.127,50.738ZM35.61,55.06V39.2L48.144,33.83A5.874,5.874,0,0,1,47,36.3a8.729,8.729,0,0,1-1.115.977,3.041,3.041,0,0,0-1.513,3.313,2.863,2.863,0,0,0,2.055,1.839A15.479,15.479,0,0,0,58.517,39.5a13.193,13.193,0,0,0,2.55-2.561l9.12,2.483V55.06a17.288,17.288,0,1,1-34.577,0Zm12.1,25.5a2.161,2.161,0,0,0,.864-1.729V76.238a21.61,21.61,0,0,0,8.644,0v2.593a2.161,2.161,0,0,0,.864,1.729L64.1,85.07l-11.2,6.4-11.2-6.4Zm17.265,8.986-3.045,15.218H43.866L40.821,89.545l11.006,6.289a2.161,2.161,0,0,0,2.144,0Zm22.5,23.862H18.322V102.6A15.145,15.145,0,0,1,33.449,87.475H36l3.976,19.882a2.161,2.161,0,0,0,2.118,1.729H63.7a2.161,2.161,0,0,0,2.118-1.729L69.8,87.475h2.55A15.145,15.145,0,0,1,87.475,102.6Z" transform="translate(15.111 15.111)" fill="#4c488b"/>
          <path id="Trazado_108377" data-name="Trazado 108377" d="M34.483,18v4.629h4.322V18a8.644,8.644,0,1,0-4.322,0ZM36.644,5.339a4.322,4.322,0,1,1-4.322,4.322A4.322,4.322,0,0,1,36.644,5.339Z" transform="translate(31.365 0)" fill="#4c488b"/>
          <path id="Trazado_108378" data-name="Trazado 108378" d="M18,38.806H29.111V34.483H18a8.644,8.644,0,1,0,0,4.322ZM9.662,40.967a4.322,4.322,0,1,1,4.322-4.322A4.322,4.322,0,0,1,9.662,40.967Z" transform="translate(0 31.365)" fill="#4c488b"/>
          <path id="Trazado_108379" data-name="Trazado 108379" d="M69.449,28a8.644,8.644,0,0,0-8.337,6.483H50v4.322H61.112A8.629,8.629,0,1,0,69.449,28Zm0,12.966a4.322,4.322,0,1,1,4.322-4.322A4.322,4.322,0,0,1,69.449,40.966Z" transform="translate(56.908 31.365)" fill="#4c488b"/>
          <path id="Trazado_108380" data-name="Trazado 108380" d="M0,0H4.322V3.911H0Z" transform="translate(85.895 19.593) rotate(-67.155)" fill="#4c488b"/>
          <path id="Trazado_108381" data-name="Trazado 108381" d="M0,0H4.322V3.914H0Z" transform="matrix(0.389, -0.921, 0.921, 0.389, 78.759, 16.558)" fill="#4c488b"/>
          <path id="Trazado_108382" data-name="Trazado 108382" d="M0,0H4.322V3.911H0Z" transform="translate(93.099 22.634) rotate(-67.155)" fill="#4c488b"/>
          <path id="Trazado_108383" data-name="Trazado 108383" d="M0,0H3.911V4.322H0Z" transform="matrix(0.389, -0.921, 0.921, 0.389, 117.989, 82.407)" fill="#4c488b"/>
          <path id="Trazado_108384" data-name="Trazado 108384" d="M0,0H3.914V4.322H0Z" transform="matrix(0.389, -0.921, 0.921, 0.389, 111.903, 96.828)" fill="#4c488b"/>
          <path id="Trazado_108385" data-name="Trazado 108385" d="M0,0H3.911V4.322H0Z" transform="matrix(0.389, -0.921, 0.921, 0.389, 114.945, 89.618)" fill="#4c488b"/>
          <path id="Trazado_108386" data-name="Trazado 108386" d="M0,0H3.911V4.322H0Z" transform="matrix(0.389, -0.921, 0.921, 0.389, 18.607, 41.211)" fill="#4c488b"/>
          <path id="Trazado_108387" data-name="Trazado 108387" d="M0,0H3.911V4.322H0Z" transform="matrix(0.389, -0.921, 0.921, 0.389, 15.563, 48.42)" fill="#4c488b"/>
          <path id="Trazado_108388" data-name="Trazado 108388" d="M0,0H3.914V4.322H0Z" transform="matrix(0.389, -0.921, 0.921, 0.389, 12.521, 55.632)" fill="#4c488b"/>
          <path id="Trazado_108389" data-name="Trazado 108389" d="M0,0H4.322V3.911H0Z" transform="translate(18.563 94.794) rotate(-22.845)" fill="#4c488b"/>
          <path id="Trazado_108390" data-name="Trazado 108390" d="M0,0H4.322V3.914H0Z" transform="matrix(0.921, -0.389, 0.389, 0.921, 12.556, 80.374)" fill="#4c488b"/>
          <path id="Trazado_108391" data-name="Trazado 108391" d="M0,0H4.322V3.911H0Z" transform="matrix(0.921, -0.389, 0.389, 0.921, 15.599, 87.581)" fill="#4c488b"/>
          <path id="Trazado_108392" data-name="Trazado 108392" d="M0,0H4.322V3.911H0Z" transform="matrix(0.921, -0.389, 0.389, 0.921, 117.951, 53.623)" fill="#4c488b"/>
          <path id="Trazado_108393" data-name="Trazado 108393" d="M0,0H4.322V3.911H0Z" transform="matrix(0.921, -0.389, 0.389, 0.921, 114.911, 46.417)" fill="#4c488b"/>
          <path id="Trazado_108394" data-name="Trazado 108394" d="M0,0H4.322V3.914H0Z" transform="matrix(0.921, -0.389, 0.389, 0.921, 111.869, 39.199)" fill="#4c488b"/>
          <path id="Trazado_108395" data-name="Trazado 108395" d="M0,0H3.911V4.322H0Z" transform="matrix(0.921, -0.389, 0.389, 0.921, 44.784, 17.075)" fill="#4c488b"/>
          <path id="Trazado_108396" data-name="Trazado 108396" d="M0,0H3.911V4.322H0Z" transform="matrix(0.921, -0.389, 0.389, 0.921, 37.576, 20.114)" fill="#4c488b"/>
          <path id="Trazado_108397" data-name="Trazado 108397" d="M0,0H3.911V4.322H0Z" transform="matrix(0.921, -0.389, 0.389, 0.921, 51.988, 14.035)" fill="#4c488b"/>
          <path id="Trazado_108398" data-name="Trazado 108398" d="M46.021,25.348,49.077,28.4l3.341-3.341a8.53,8.53,0,0,0,4.363,1.225,8.644,8.644,0,1,0-8.644-8.644,8.529,8.529,0,0,0,1.225,4.363Zm10.76-12.026a4.322,4.322,0,1,1-4.322,4.322A4.322,4.322,0,0,1,56.781,13.322Z" transform="translate(52.288 9.306)" fill="#4c488b"/>
          <path id="Trazado_108399" data-name="Trazado 108399" d="M17.644,26.288a8.53,8.53,0,0,0,4.363-1.225L25.348,28.4,28.4,25.348l-3.341-3.341a8.53,8.53,0,0,0,1.225-4.363,8.644,8.644,0,1,0-8.644,8.644Zm0-12.966a4.322,4.322,0,1,1-4.322,4.322A4.322,4.322,0,0,1,17.644,13.322Z" transform="translate(9.306 9.306)" fill="#4c488b"/>
        </g>
      </g>
      <rect id="Rectángulo_31417" data-name="Rectángulo 31417" width="158" height="158" transform="translate(232 1491)" fill="none"/>
    </g>
  </g>
</svg>
